<?xml version="1.0" encoding="UTF-8" standalone="no"?>
<!-- Created with Inkscape (http://www.inkscape.org/) -->

<svg
   width="210mm"
   height="297mm"
   viewBox="0 0 210 297"
   version="1.1"
   id="svg1"
   xml:space="preserve"
   inkscape:version="1.4 (e7c3feb100, 2024-10-09)"
   sodipodi:docname="sonamobi-icon.svg"
   inkscape:export-filename="sonamobi-icon.png"
   inkscape:export-xdpi="598.4278"
   inkscape:export-ydpi="598.4278"
   xmlns:inkscape="http://www.inkscape.org/namespaces/inkscape"
   xmlns:sodipodi="http://sodipodi.sourceforge.net/DTD/sodipodi-0.dtd"
   xmlns="http://www.w3.org/2000/svg"
   xmlns:svg="http://www.w3.org/2000/svg"><sodipodi:namedview
     id="namedview1"
     pagecolor="#ffffff"
     bordercolor="#666666"
     borderopacity="1.0"
     inkscape:showpageshadow="2"
     inkscape:pageopacity="0.0"
     inkscape:pagecheckerboard="0"
     inkscape:deskcolor="#d1d1d1"
     inkscape:document-units="mm"
     inkscape:zoom="4.3893395"
     inkscape:cx="375.45512"
     inkscape:cy="415.21053"
     inkscape:window-width="1800"
     inkscape:window-height="1080"
     inkscape:window-x="0"
     inkscape:window-y="0"
     inkscape:window-maximized="1"
     inkscape:current-layer="layer1" /><defs
     id="defs1"><style
       id="style1">.cls-1{fill:#231f20;}.cls-2{fill:#4125d0;}.cls-3{fill:#f1f1f2;}</style><clipPath
       clipPathUnits="userSpaceOnUse"
       id="clipPath1710"><path
         d="m 163.75,548.25 h 384.5 v -384.5 h -384.5 z"
         id="path1708" /></clipPath><clipPath
       clipPathUnits="userSpaceOnUse"
       id="clipPath1714"><path
         d="M 164,548 H 548 V 164 H 164 Z"
         id="path1712" /></clipPath><clipPath
       clipPathUnits="userSpaceOnUse"
       id="clipPath1718"><path
         d="M 164.066,547.968 H 547.999 V 163.956 H 164.066 Z"
         id="path1716" /></clipPath><clipPath
       clipPathUnits="userSpaceOnUse"
       id="clipPath1722"><path
         d="M 164.02,547.93 H 547.835 V 164.176 H 164.02 Z"
         id="path1720" /></clipPath><clipPath
       clipPathUnits="userSpaceOnUse"
       id="clipPath1726"><path
         d="m 299.75,548.25 h 0.5 v -384.5 h -0.5 z"
         id="path1724" /></clipPath><clipPath
       clipPathUnits="userSpaceOnUse"
       id="clipPath1730"><path
         d="m 355.75,548.25 h 0.5 v -384.5 h -0.5 z"
         id="path1728" /></clipPath><clipPath
       clipPathUnits="userSpaceOnUse"
       id="clipPath1734"><path
         d="m 411.83,548.25 h 0.5 v -384.5 h -0.5 z"
         id="path1732" /></clipPath><clipPath
       clipPathUnits="userSpaceOnUse"
       id="clipPath1738"><path
         d="m 163.9,412.1 h 383.933 v -0.2 H 163.9 Z"
         id="path1736" /></clipPath><clipPath
       clipPathUnits="userSpaceOnUse"
       id="clipPath1742"><path
         d="m 163.9,356.1 h 383.933 v -0.2 H 163.9 Z"
         id="path1740" /></clipPath><clipPath
       clipPathUnits="userSpaceOnUse"
       id="clipPath1746"><path
         d="m 163.75,300.25 h 384.233 v -0.5 H 163.75 Z"
         id="path1744" /></clipPath></defs><g
     inkscape:label="Layer 1"
     inkscape:groupmode="layer"
     id="layer1"
     style="opacity:1"><rect
       style="color:#000000;overflow:visible;fill:#4125d0;fill-opacity:1;stroke-width:0.899999;stroke-linecap:round;stroke-linejoin:round"
       id="rect1"
       width="21.731613"
       height="21.731613"
       x="94.459816"
       y="99.278862"
       ry="0" /><path
       style="font-weight:bold;font-size:23.9786px;line-height:125%;font-family:'Liberation Sans';-inkscape-font-specification:'Liberation Sans Bold';fill:#ffffff;stroke-width:0.900001;stroke-linecap:round;stroke-linejoin:round"
       d="m 108.43541,112.87271 c -0.54623,0 -1.09867,-0.11801 -1.65731,-0.35381 -0.54623,-0.23588 -1.08005,-0.49658 -1.60145,-0.78211 -0.52139,-0.29794 -1.01797,-0.56485 -1.48972,-0.80072 -0.45933,-0.23587 -0.87521,-0.3538 -1.24764,-0.3538 -0.509,0 -0.90005,0.14282 -1.17315,0.42829 -0.2607,0.28553 -0.47796,0.90624 -0.65175,1.86215 h -2.551155 c 0.09932,-1.40282 0.297948,-2.45183 0.595888,-3.14703 0.310359,-0.70763 0.751067,-1.26627 1.322123,-1.67594 0.571064,-0.42209 1.328334,-0.63312 2.271834,-0.63312 0.55864,0 1.11728,0.11784 1.67593,0.35379 0.55864,0.23587 1.09866,0.50279 1.62007,0.80073 0.52141,0.28552 1.00555,0.54622 1.45248,0.7821 0.45934,0.23588 0.86901,0.35382 1.22902,0.35382 0.49657,0 0.88141,-0.14903 1.15454,-0.44692 0.28552,-0.31037 0.51519,-0.92487 0.68898,-1.84352 h 2.51391 c -0.0868,1.94903 -0.48414,3.34564 -1.19178,4.18981 -0.6952,0.84418 -1.68214,1.26628 -2.96082,1.26628 z"
       id="text1"
       aria-label="õ"
       sodipodi:nodetypes="scccscccccssccsccccs" /></g><g
     inkscape:groupmode="layer"
     id="layer2"
     inkscape:label="google guidelines"
     sodipodi:insensitive="true"
     style="display:none"><g
       clip-path="url(#clipPath1710)"
       id="g1876"
       transform="matrix(0.05662679,0,0,-0.05662679,85.169293,130.29477)"
       style="display:inline"><g
         id="g1756"><g
           id="g1748" /><g
           id="g1754"><g
             clip-path="url(#clipPath1714)"
             opacity="0.100006"
             id="g1752"><path
               d="M 164,548 H 548 V 164 H 164 Z"
               style="fill:#66ddb7;fill-opacity:1;fill-rule:nonzero;stroke:none"
               id="path1750" /></g></g></g><path
         d="M 164,548 H 548 V 164 H 164 Z"
         style="fill:none;stroke:#65dcb7;stroke-width:0.5;stroke-linecap:butt;stroke-linejoin:miter;stroke-miterlimit:4;stroke-dasharray:none;stroke-opacity:1"
         id="path1758" /><g
         transform="translate(183.0039,484)"
         id="g1762"><path
           d="m 0,0 h 345.992 c 1.659,0 3.004,-1.345 3.004,-3.004 v -249.992 c 0,-1.659 -1.345,-3.004 -3.004,-3.004 L 0,-256 c -1.659,0 -3.004,1.345 -3.004,3.004 V -3.004 C -3.004,-1.345 -1.659,0 0,0 Z"
           style="fill:none;stroke:#4d4d4d;stroke-width:0.5;stroke-linecap:butt;stroke-linejoin:miter;stroke-miterlimit:4;stroke-dasharray:none;stroke-opacity:1"
           id="path1760" /></g><g
         transform="translate(231.0039,532)"
         id="g1766"><path
           d="m 0,0 h 249.992 c 1.659,0 3.004,-1.345 3.004,-3.004 v -345.992 c 0,-1.659 -1.345,-3.004 -3.004,-3.004 L 0,-352 c -1.659,0 -3.004,1.345 -3.004,3.004 V -3.004 C -3.004,-1.345 -1.659,0 0,0 Z"
           style="fill:none;stroke:#666666;stroke-width:0.5;stroke-linecap:butt;stroke-linejoin:miter;stroke-miterlimit:4;stroke-dasharray:none;stroke-opacity:1"
           id="path1764" /></g><g
         transform="translate(207.0039,508)"
         id="g1770"><path
           d="m 0,0 h 297.992 c 1.659,0 3.004,-1.345 3.004,-3.004 v -297.992 c 0,-1.659 -1.345,-3.004 -3.004,-3.004 L 0,-304 c -1.659,0 -3.004,1.345 -3.004,3.004 V -3.004 C -3.004,-1.345 -1.659,0 0,0 Z"
           style="fill:none;stroke:#4d4d4d;stroke-width:0.5;stroke-linecap:butt;stroke-linejoin:miter;stroke-miterlimit:4;stroke-dasharray:none;stroke-opacity:1"
           id="path1768" /></g><g
         transform="translate(356,532)"
         id="g1774"><path
           d="m 0,0 c 97.202,0 176,-78.798 176,-176 0,-97.202 -78.798,-176 -176,-176 -97.202,0 -176,78.798 -176,176 0,97.202 78.798,176 176,176 z"
           style="fill:none;stroke:#4d4d4d;stroke-width:0.5;stroke-linecap:butt;stroke-linejoin:miter;stroke-miterlimit:4;stroke-dasharray:none;stroke-opacity:1"
           id="path1772" /></g><g
         transform="translate(356,436)"
         id="g1778"><path
           d="m 0,0 c 44.183,0 80,-35.817 80,-80 0,-44.183 -35.817,-80 -80,-80 -44.183,0 -80,35.817 -80,80 0,44.183 35.817,80 80,80 z"
           style="fill:none;stroke:#4d4d4d;stroke-width:0.5;stroke-linecap:butt;stroke-linejoin:miter;stroke-miterlimit:4;stroke-dasharray:none;stroke-opacity:1"
           id="path1776" /></g><g
         id="g1790"><g
           id="g1780" /><g
           id="g1788"><g
             clip-path="url(#clipPath1718)"
             opacity="0.300003"
             id="g1786"><g
               transform="translate(164.4194,164.3096)"
               id="g1784"><path
                 d="M 0,0 383.226,383.305"
                 style="fill:none;stroke:#65dcb7;stroke-width:0.5;stroke-linecap:square;stroke-linejoin:miter;stroke-miterlimit:4;stroke-dasharray:none;stroke-opacity:1"
                 id="path1782" /></g></g></g></g><g
         id="g1802"><g
           id="g1792" /><g
           id="g1800"><g
             clip-path="url(#clipPath1722)"
             opacity="0.300003"
             id="g1798"><g
               transform="translate(547.4814,164.5293)"
               id="g1796"><path
                 d="M 0,0 -383.107,383.047"
                 style="fill:none;stroke:#65dcb7;stroke-width:0.5;stroke-linecap:square;stroke-linejoin:miter;stroke-miterlimit:4;stroke-dasharray:none;stroke-opacity:1"
                 id="path1794" /></g></g></g></g><g
         id="g1814"><g
           id="g1804" /><g
           id="g1812"><g
             clip-path="url(#clipPath1726)"
             opacity="0.300003"
             id="g1810"><g
               transform="translate(300,548)"
               id="g1808"><path
                 d="M 0,0 V -384"
                 style="fill:none;stroke:#65dcb7;stroke-width:0.5;stroke-linecap:square;stroke-linejoin:miter;stroke-miterlimit:4;stroke-dasharray:none;stroke-opacity:1"
                 id="path1806" /></g></g></g></g><g
         id="g1826"><g
           id="g1816" /><g
           id="g1824"><g
             clip-path="url(#clipPath1730)"
             opacity="0.300003"
             id="g1822"><g
               transform="translate(356,548)"
               id="g1820"><path
                 d="M 0,0 V -384"
                 style="fill:none;stroke:#65dcb7;stroke-width:0.5;stroke-linecap:square;stroke-linejoin:miter;stroke-miterlimit:4;stroke-dasharray:none;stroke-opacity:1"
                 id="path1818" /></g></g></g></g><g
         id="g1838"><g
           id="g1828" /><g
           id="g1836"><g
             clip-path="url(#clipPath1734)"
             opacity="0.300003"
             id="g1834"><g
               transform="translate(412.0801,548)"
               id="g1832"><path
                 d="M 0,0 V -384"
                 style="fill:none;stroke:#65dcb7;stroke-width:0.5;stroke-linecap:square;stroke-linejoin:miter;stroke-miterlimit:4;stroke-dasharray:none;stroke-opacity:1"
                 id="path1830" /></g></g></g></g><g
         id="g1850"><g
           id="g1840" /><g
           id="g1848"><g
             clip-path="url(#clipPath1738)"
             opacity="0.300003"
             id="g1846"><g
               transform="translate(547.7334,412)"
               id="g1844"><path
                 d="M 0,0 H -383.733"
                 style="fill:none;stroke:#65dcb7;stroke-width:0.2;stroke-linecap:square;stroke-linejoin:miter;stroke-miterlimit:4;stroke-dasharray:none;stroke-opacity:1"
                 id="path1842" /></g></g></g></g><g
         id="g1862"><g
           id="g1852" /><g
           id="g1860"><g
             clip-path="url(#clipPath1742)"
             opacity="0.300003"
             id="g1858"><g
               transform="translate(547.7334,356)"
               id="g1856"><path
                 d="M 0,0 H -383.733"
                 style="fill:none;stroke:#65dcb7;stroke-width:0.2;stroke-linecap:square;stroke-linejoin:miter;stroke-miterlimit:4;stroke-dasharray:none;stroke-opacity:1"
                 id="path1854" /></g></g></g></g><g
         id="g1874"><g
           id="g1864" /><g
           id="g1872"><g
             clip-path="url(#clipPath1746)"
             opacity="0.300003"
             id="g1870"><g
               transform="translate(547.7334,300)"
               id="g1868"><path
                 d="M 0,0 H -383.733"
                 style="fill:none;stroke:#65dcb7;stroke-width:0.5;stroke-linecap:square;stroke-linejoin:miter;stroke-miterlimit:4;stroke-dasharray:none;stroke-opacity:1"
                 id="path1866" /></g></g></g></g></g></g></svg>
